<svg width="1456" height="921" viewBox="0 0 1456 921" fill="none" xmlns="http://www.w3.org/2000/svg">
<path fill-rule="evenodd" clip-rule="evenodd" d="M1363.57 828.604H1400.41V36.8281C1400.41 16.4896 1383.92 0 1363.57 0H92.3385C71.9896 0 55.4896 16.4896 55.4896 36.8281V828.604H92.3385V55.2396C92.3385 45.0729 100.589 36.8281 110.76 36.8281H1345.14C1355.32 36.8281 1363.57 45.0729 1363.57 55.2396V828.604Z" fill="#0F0F0F"/>
<mask id="mask0_16_15" style="mask-type:luminance" maskUnits="userSpaceOnUse" x="0" y="828" width="1456" height="93">
<path d="M0 828H1455.84V920.672H0V828Z" fill="white"/>
</mask>
<g mask="url(#mask0_16_15)">
<path d="M0.21875 828.604H1455.68V865.432C1455.68 895.938 1430.94 920.672 1400.41 920.672H55.4896C24.9688 920.672 0.21875 895.938 0.21875 865.432V828.604Z" fill="#0F0F0F"/>
</g>
</svg>
