<svg width="436" height="362" viewBox="0 0 436 362" fill="none" xmlns="http://www.w3.org/2000/svg">
<path d="M11.0208 352.985H0V298.61H8.75L11.0208 303.381C12.8385 301.631 15.0313 300.193 17.6042 299.068C20.1719 297.933 22.9688 297.36 26 297.36C27.9688 297.36 30.1979 297.667 32.6875 298.276C35.1875 298.875 37.5104 300.006 39.6667 301.672C41.8333 303.339 43.651 305.651 45.125 308.61C46.5938 311.558 47.3333 315.375 47.3333 320.068V352.985H36.8958V319.943C36.8958 317.599 36.5312 315.61 35.8125 313.985C35.1042 312.36 34.1562 311.058 32.9792 310.068C31.8125 309.084 30.4844 308.381 29 307.964C27.526 307.547 26 307.339 24.4167 307.339C23.2083 307.339 21.8229 307.568 20.2708 308.026C18.7135 308.485 17.2552 309.229 15.8958 310.256C14.5313 311.271 13.3802 312.558 12.4375 314.11C11.4896 315.651 11.0208 317.563 11.0208 319.839V352.985Z" fill="#FEFEFE"/>
<path d="M112.387 298.61V352.985H103.075L101.366 346.735C99.4757 349.235 97.0539 351.131 94.0955 352.422C91.1476 353.698 88.1632 354.339 85.1372 354.339C81.356 354.339 77.8247 353.599 74.533 352.131C71.2414 350.662 68.3664 348.641 65.908 346.068C63.4497 343.485 61.4966 340.459 60.0539 336.985C58.606 333.5 57.8872 329.792 57.8872 325.86C57.8872 321.917 58.606 318.209 60.0539 314.735C61.4966 311.25 63.4497 308.224 65.908 305.651C68.3664 303.068 71.2414 301.042 74.533 299.568C77.8247 298.099 81.356 297.36 85.1372 297.36C88.1632 297.36 91.0747 297.953 93.8664 299.131C96.6685 300.297 99.1685 302.131 101.366 304.631L103.075 298.61H112.387ZM85.1372 344.589C87.3299 344.589 89.4132 344.099 91.3872 343.11C93.356 342.125 95.0591 340.787 96.4914 339.089C97.9341 337.381 99.0747 335.396 99.908 333.131C100.741 330.854 101.158 328.433 101.158 325.86C101.158 323.276 100.741 320.854 99.908 318.589C99.0747 316.313 97.9341 314.328 96.4914 312.631C95.0591 310.922 93.356 309.584 91.3872 308.61C89.4132 307.625 87.3299 307.131 85.1372 307.131C82.9393 307.131 80.856 307.625 78.8872 308.61C76.9289 309.584 75.2257 310.922 73.783 312.631C72.3507 314.328 71.2205 316.313 70.3872 318.589C69.5539 320.854 69.1372 323.276 69.1372 325.86C69.1372 328.433 69.5539 330.854 70.3872 333.131C71.2205 335.396 72.3507 337.381 73.783 339.089C75.2257 340.787 76.9289 342.125 78.8872 343.11C80.856 344.099 82.9393 344.589 85.1372 344.589Z" fill="#FEFEFE"/>
<path d="M153.14 352.88C150.025 353.933 146.958 354.573 143.932 354.797C140.916 355.032 138.192 354.599 135.765 353.505C133.348 352.412 131.379 350.479 129.869 347.714C128.353 344.953 127.598 341.068 127.598 336.068V308.485H119.64V300.88L127.598 298.61V284.068H138.598V298.61H153.369V308.485H138.598V337.776C138.598 339.599 138.807 341.037 139.223 342.089C139.64 343.146 140.338 343.938 141.327 344.464C142.312 344.995 143.598 345.255 145.182 345.255C146.775 345.255 148.708 345.11 150.973 344.818L153.14 352.88Z" fill="#FEFEFE"/>
<path d="M213.982 298.61V352.985H204.67L202.962 346.735C201.071 349.235 198.649 351.13 195.691 352.422C192.743 353.698 189.758 354.339 186.732 354.339C182.951 354.339 179.42 353.599 176.128 352.13C172.837 350.662 169.962 348.641 167.503 346.068C165.045 343.485 163.092 340.459 161.649 336.985C160.201 333.5 159.482 329.792 159.482 325.86C159.482 321.917 160.201 318.209 161.649 314.735C163.092 311.25 165.045 308.224 167.503 305.651C169.962 303.068 172.837 301.042 176.128 299.568C179.42 298.099 182.951 297.36 186.732 297.36C189.758 297.36 192.67 297.953 195.462 299.13C198.264 300.297 200.764 302.13 202.962 304.63L204.67 298.61H213.982ZM186.732 344.589C188.925 344.589 191.008 344.099 192.982 343.11C194.951 342.125 196.654 340.787 198.087 339.089C199.529 337.38 200.67 335.396 201.503 333.13C202.337 330.854 202.753 328.433 202.753 325.86C202.753 323.276 202.337 320.854 201.503 318.589C200.67 316.313 199.529 314.328 198.087 312.63C196.654 310.922 194.951 309.584 192.982 308.61C191.008 307.625 188.925 307.13 186.732 307.13C184.535 307.13 182.451 307.625 180.482 308.61C178.524 309.584 176.821 310.922 175.378 312.63C173.946 314.328 172.816 316.313 171.982 318.589C171.149 320.854 170.732 323.276 170.732 325.86C170.732 328.433 171.149 330.854 171.982 333.13C172.816 335.396 173.946 337.38 175.378 339.089C176.821 340.787 178.524 342.125 180.482 343.11C182.451 344.099 184.535 344.589 186.732 344.589ZM197.524 272.505L191.17 292.714H182.191L184.92 272.505H197.524Z" fill="#FEFEFE"/>
<path d="M236.797 270.11V352.985H225.777V270.11H236.797Z" fill="#FEFEFE"/>
<path d="M260.737 352.985H249.737V298.61H260.633L260.737 352.985ZM255.175 286.797C253.217 286.797 251.555 286.104 250.196 284.714C248.831 283.313 248.154 281.625 248.154 279.651C248.154 277.683 248.831 276.016 250.196 274.651C251.555 273.292 253.217 272.61 255.175 272.61C257.144 272.61 258.81 273.292 260.175 274.651C261.534 276.016 262.217 277.683 262.217 279.651C262.217 281.625 261.534 283.313 260.175 284.714C258.81 286.104 257.144 286.797 255.175 286.797Z" fill="#FEFEFE"/>
<path d="M324.659 298.61V352.985H315.346L313.638 346.735C311.747 349.235 309.325 351.131 306.367 352.422C303.419 353.698 300.435 354.339 297.409 354.339C293.627 354.339 290.096 353.599 286.805 352.131C283.513 350.662 280.638 348.641 278.18 346.068C275.721 343.485 273.768 340.459 272.325 336.985C270.877 333.5 270.159 329.792 270.159 325.86C270.159 321.917 270.877 318.209 272.325 314.735C273.768 311.25 275.721 308.224 278.18 305.651C280.638 303.068 283.513 301.042 286.805 299.568C290.096 298.099 293.627 297.36 297.409 297.36C300.435 297.36 303.346 297.953 306.138 299.131C308.94 300.297 311.44 302.131 313.638 304.631L315.346 298.61H324.659ZM297.409 344.589C299.601 344.589 301.685 344.099 303.659 343.11C305.627 342.125 307.331 340.787 308.763 339.089C310.206 337.381 311.346 335.396 312.18 333.131C313.013 330.854 313.43 328.433 313.43 325.86C313.43 323.276 313.013 320.854 312.18 318.589C311.346 316.313 310.206 314.328 308.763 312.631C307.331 310.922 305.627 309.584 303.659 308.61C301.685 307.625 299.601 307.131 297.409 307.131C295.211 307.131 293.127 307.625 291.159 308.61C289.2 309.584 287.497 310.922 286.055 312.631C284.622 314.328 283.492 316.313 282.659 318.589C281.825 320.854 281.409 323.276 281.409 325.86C281.409 328.433 281.825 330.854 282.659 333.131C283.492 335.396 284.622 337.381 286.055 339.089C287.497 340.787 289.2 342.125 291.159 343.11C293.127 344.099 295.211 344.589 297.409 344.589Z" fill="#FEFEFE"/>
<path d="M390.497 354.339C386.705 354.339 383.163 353.599 379.872 352.131C376.58 350.662 373.705 348.641 371.247 346.068C368.788 343.485 366.835 340.459 365.392 336.985C363.96 333.5 363.247 329.792 363.247 325.86C363.247 321.917 363.96 318.209 365.392 314.735C366.835 311.25 368.788 308.224 371.247 305.651C373.705 303.068 376.58 301.042 379.872 299.568C383.163 298.099 386.705 297.36 390.497 297.36C394.882 297.36 398.934 298.349 402.642 300.318C406.351 302.276 409.455 304.964 411.955 308.381L404.226 314.381C402.71 312.188 400.799 310.464 398.497 309.214C396.189 307.964 393.71 307.339 391.059 307.339C388.793 307.339 386.632 307.818 384.58 308.776C382.538 309.724 380.757 311.026 379.247 312.693C377.731 314.349 376.538 316.313 375.663 318.589C374.799 320.854 374.372 323.276 374.372 325.86C374.372 328.433 374.799 330.854 375.663 333.131C376.538 335.396 377.731 337.381 379.247 339.089C380.757 340.787 382.538 342.125 384.58 343.11C386.632 344.099 388.793 344.589 391.059 344.589C394.017 344.589 396.705 343.797 399.122 342.214C401.538 340.62 403.502 338.495 405.017 335.839L412.517 342.422C410.101 346.063 406.96 348.959 403.101 351.11C399.236 353.261 395.038 354.339 390.497 354.339Z" fill="#FEFEFE"/>
<path d="M421.704 347.089C421.704 345.12 422.381 343.433 423.745 342.026C425.105 340.625 426.771 339.922 428.745 339.922C430.714 339.922 432.381 340.625 433.745 342.026C435.105 343.433 435.787 345.12 435.787 347.089C435.787 349.047 435.105 350.709 433.745 352.068C432.381 353.427 430.714 354.11 428.745 354.11C426.771 354.11 425.105 353.427 423.745 352.068C422.381 350.709 421.704 349.047 421.704 347.089Z" fill="#FEFEFE"/>
<mask id="mask0_1_1510" style="mask-type:luminance" maskUnits="userSpaceOnUse" x="112" y="2" width="211" height="208">
<path d="M112 2.08295H323V209.063H112V2.08295Z" fill="white"/>
</mask>
<g mask="url(#mask0_1_1510)">
<path d="M322.954 209.034H270.325V107.244C270.325 78.2036 246.637 54.5697 217.508 54.5697C188.38 54.5697 164.692 78.1952 164.692 107.244V209.034H112.071V107.244C112.071 49.2546 159.376 2.08295 217.508 2.08295C275.636 2.08295 322.946 49.2546 322.946 107.244V209.034H322.954Z" fill="#FEFEFE"/>
</g>
<g opacity="0.5">
<mask id="mask1_1_1510" style="mask-type:luminance" maskUnits="userSpaceOnUse" x="114" y="0" width="207" height="212">
<path d="M114 211.737L114 0.737427H320.98V211.737H114Z" fill="white"/>
</mask>
<g mask="url(#mask1_1_1510)">
<path d="M320.951 0.783386V53.4122H219.162C190.121 53.4122 166.487 77.1004 166.487 106.229C166.487 135.358 190.112 159.046 219.162 159.046H320.951V211.666H219.162C161.172 211.666 114 164.361 114 106.229C114 48.1013 161.172 0.791748 219.162 0.791748H320.951V0.783386Z" fill="#FEFEFE"/>
</g>
</g>
</svg>
