<svg width="436" height="421" viewBox="0 0 436 421" fill="none" xmlns="http://www.w3.org/2000/svg">
<path d="M11.0208 352.616H0V298.241H8.75L11.0208 303.012C12.8385 301.262 15.0313 299.824 17.6042 298.699C20.1719 297.564 22.9688 296.991 26 296.991C27.9688 296.991 30.1979 297.298 32.6875 297.908C35.1875 298.507 37.5104 299.637 39.6667 301.303C41.8333 302.97 43.651 305.283 45.125 308.241C46.5938 311.189 47.3333 315.007 47.3333 319.699V352.616H36.8958V319.574C36.8958 317.231 36.5312 315.241 35.8125 313.616C35.1042 311.991 34.1562 310.689 32.9792 309.699C31.8125 308.715 30.4844 308.012 29 307.595C27.526 307.178 26 306.97 24.4167 306.97C23.2083 306.97 21.8229 307.199 20.2708 307.658C18.7135 308.116 17.2552 308.861 15.8958 309.887C14.5313 310.902 13.3802 312.189 12.4375 313.741C11.4896 315.283 11.0208 317.194 11.0208 319.47V352.616Z" fill="#1F1F1F"/>
<path d="M112.387 298.241V352.616H103.075L101.366 346.366C99.4757 348.866 97.0539 350.762 94.0955 352.053C91.1476 353.33 88.1632 353.97 85.1372 353.97C81.356 353.97 77.8247 353.231 74.533 351.762C71.2414 350.293 68.3664 348.272 65.908 345.699C63.4497 343.116 61.4966 340.09 60.0539 336.616C58.606 333.132 57.8872 329.423 57.8872 325.491C57.8872 321.548 58.606 317.84 60.0539 314.366C61.4966 310.882 63.4497 307.856 65.908 305.283C68.3664 302.699 71.2414 300.673 74.533 299.199C77.8247 297.731 81.356 296.991 85.1372 296.991C88.1632 296.991 91.0747 297.585 93.8664 298.762C96.6685 299.928 99.1685 301.762 101.366 304.262L103.075 298.241H112.387ZM85.1372 344.22C87.3299 344.22 89.4132 343.731 91.3872 342.741C93.356 341.757 95.0591 340.418 96.4914 338.72C97.9341 337.012 99.0747 335.027 99.908 332.762C100.741 330.486 101.158 328.064 101.158 325.491C101.158 322.908 100.741 320.486 99.908 318.22C99.0747 315.944 97.9341 313.96 96.4914 312.262C95.0591 310.553 93.356 309.215 91.3872 308.241C89.4132 307.257 87.3299 306.762 85.1372 306.762C82.9393 306.762 80.856 307.257 78.8872 308.241C76.9289 309.215 75.2257 310.553 73.783 312.262C72.3507 313.96 71.2205 315.944 70.3872 318.22C69.5539 320.486 69.1372 322.908 69.1372 325.491C69.1372 328.064 69.5539 330.486 70.3872 332.762C71.2205 335.027 72.3507 337.012 73.783 338.72C75.2257 340.418 76.9289 341.757 78.8872 342.741C80.856 343.731 82.9393 344.22 85.1372 344.22Z" fill="#1F1F1F"/>
<path d="M153.14 352.512C150.025 353.564 146.958 354.204 143.932 354.428C140.916 354.663 138.192 354.231 135.765 353.137C133.348 352.043 131.379 350.111 129.869 347.345C128.353 344.585 127.598 340.699 127.598 335.699V308.116H119.64V300.512L127.598 298.241V283.699H138.598V298.241H153.369V308.116H138.598V337.408C138.598 339.231 138.807 340.668 139.223 341.72C139.64 342.777 140.338 343.569 141.327 344.095C142.312 344.626 143.598 344.887 145.182 344.887C146.775 344.887 148.708 344.741 150.973 344.449L153.14 352.512Z" fill="#1F1F1F"/>
<path d="M213.982 298.241V352.616H204.67L202.962 346.366C201.071 348.866 198.649 350.762 195.691 352.053C192.743 353.329 189.758 353.97 186.732 353.97C182.951 353.97 179.42 353.231 176.128 351.762C172.837 350.293 169.962 348.272 167.503 345.699C165.045 343.116 163.092 340.09 161.649 336.616C160.201 333.132 159.482 329.423 159.482 325.491C159.482 321.548 160.201 317.84 161.649 314.366C163.092 310.882 165.045 307.856 167.503 305.283C169.962 302.699 172.837 300.673 176.128 299.199C179.42 297.731 182.951 296.991 186.732 296.991C189.758 296.991 192.67 297.585 195.462 298.762C198.264 299.928 200.764 301.762 202.962 304.262L204.67 298.241H213.982ZM186.732 344.22C188.925 344.22 191.008 343.731 192.982 342.741C194.951 341.757 196.654 340.418 198.087 338.72C199.529 337.012 200.67 335.027 201.503 332.762C202.337 330.486 202.753 328.064 202.753 325.491C202.753 322.908 202.337 320.486 201.503 318.22C200.67 315.944 199.529 313.96 198.087 312.262C196.654 310.553 194.951 309.215 192.982 308.241C191.008 307.257 188.925 306.762 186.732 306.762C184.535 306.762 182.451 307.257 180.482 308.241C178.524 309.215 176.821 310.553 175.378 312.262C173.946 313.96 172.816 315.944 171.982 318.22C171.149 320.486 170.732 322.908 170.732 325.491C170.732 328.064 171.149 330.486 171.982 332.762C172.816 335.027 173.946 337.012 175.378 338.72C176.821 340.418 178.524 341.757 180.482 342.741C182.451 343.731 184.535 344.22 186.732 344.22ZM197.524 272.137L191.17 292.345H182.191L184.92 272.137H197.524Z" fill="#1F1F1F"/>
<path d="M236.797 269.741V352.616H225.777V269.741H236.797Z" fill="#1F1F1F"/>
<path d="M260.737 352.616H249.737V298.241H260.633L260.737 352.616ZM255.175 286.428C253.217 286.428 251.555 285.736 250.196 284.345C248.831 282.944 248.154 281.257 248.154 279.283C248.154 277.314 248.831 275.647 250.196 274.283C251.555 272.923 253.217 272.241 255.175 272.241C257.144 272.241 258.81 272.923 260.175 274.283C261.534 275.647 262.217 277.314 262.217 279.283C262.217 281.257 261.534 282.944 260.175 284.345C258.81 285.736 257.144 286.428 255.175 286.428Z" fill="#1F1F1F"/>
<path d="M324.659 298.241V352.616H315.346L313.638 346.366C311.747 348.866 309.325 350.762 306.367 352.053C303.419 353.33 300.435 353.97 297.409 353.97C293.627 353.97 290.096 353.231 286.805 351.762C283.513 350.293 280.638 348.272 278.18 345.699C275.721 343.116 273.768 340.09 272.325 336.616C270.877 333.132 270.159 329.423 270.159 325.491C270.159 321.548 270.877 317.84 272.325 314.366C273.768 310.882 275.721 307.856 278.18 305.283C280.638 302.699 283.513 300.673 286.805 299.199C290.096 297.731 293.627 296.991 297.409 296.991C300.435 296.991 303.346 297.585 306.138 298.762C308.94 299.928 311.44 301.762 313.638 304.262L315.346 298.241H324.659ZM297.409 344.22C299.601 344.22 301.685 343.731 303.659 342.741C305.627 341.757 307.331 340.418 308.763 338.72C310.206 337.012 311.346 335.027 312.18 332.762C313.013 330.486 313.43 328.064 313.43 325.491C313.43 322.908 313.013 320.486 312.18 318.22C311.346 315.944 310.206 313.96 308.763 312.262C307.331 310.553 305.627 309.215 303.659 308.241C301.685 307.257 299.601 306.762 297.409 306.762C295.211 306.762 293.127 307.257 291.159 308.241C289.2 309.215 287.497 310.553 286.055 312.262C284.622 313.96 283.492 315.944 282.659 318.22C281.825 320.486 281.409 322.908 281.409 325.491C281.409 328.064 281.825 330.486 282.659 332.762C283.492 335.027 284.622 337.012 286.055 338.72C287.497 340.418 289.2 341.757 291.159 342.741C293.127 343.731 295.211 344.22 297.409 344.22Z" fill="#1F1F1F"/>
<path d="M390.497 353.97C386.705 353.97 383.163 353.231 379.872 351.762C376.58 350.293 373.705 348.272 371.247 345.699C368.788 343.116 366.835 340.09 365.392 336.616C363.96 333.132 363.247 329.423 363.247 325.491C363.247 321.548 363.96 317.84 365.392 314.366C366.835 310.882 368.788 307.856 371.247 305.283C373.705 302.699 376.58 300.673 379.872 299.199C383.163 297.731 386.705 296.991 390.497 296.991C394.882 296.991 398.934 297.981 402.642 299.949C406.351 301.908 409.455 304.595 411.955 308.012L404.226 314.012C402.71 311.819 400.799 310.095 398.497 308.845C396.189 307.595 393.71 306.97 391.059 306.97C388.793 306.97 386.632 307.449 384.58 308.408C382.538 309.356 380.757 310.658 379.247 312.324C377.731 313.981 376.538 315.944 375.663 318.22C374.799 320.486 374.372 322.908 374.372 325.491C374.372 328.064 374.799 330.486 375.663 332.762C376.538 335.027 377.731 337.012 379.247 338.72C380.757 340.418 382.538 341.757 384.58 342.741C386.632 343.731 388.793 344.22 391.059 344.22C394.017 344.22 396.705 343.428 399.122 341.845C401.538 340.251 403.502 338.126 405.017 335.47L412.517 342.053C410.101 345.694 406.96 348.59 403.101 350.741C399.236 352.892 395.038 353.97 390.497 353.97Z" fill="#1F1F1F"/>
<path d="M421.704 346.72C421.704 344.751 422.381 343.064 423.745 341.658C425.105 340.257 426.771 339.553 428.745 339.553C430.714 339.553 432.381 340.257 433.745 341.658C435.105 343.064 435.787 344.751 435.787 346.72C435.787 348.678 435.105 350.34 433.745 351.699C432.381 353.059 430.714 353.741 428.745 353.741C426.771 353.741 425.105 353.059 423.745 351.699C422.381 350.34 421.704 348.678 421.704 346.72Z" fill="#1F1F1F"/>
<path d="M103.11 415.8V404.633H101.068V402.946H103.11V401.633C103.11 400.248 103.474 399.175 104.214 398.425C104.948 397.675 105.99 397.3 107.339 397.3C107.839 397.3 108.339 397.373 108.839 397.508L108.735 399.279C108.36 399.211 107.953 399.175 107.526 399.175C106.818 399.175 106.266 399.383 105.88 399.8C105.49 400.217 105.297 400.816 105.297 401.592V402.946H108.047V404.633H105.297V415.8H103.11Z" fill="#1F1F1F"/>
<path d="M120.233 414.529C119.368 415.529 118.113 416.029 116.462 416.029C115.087 416.029 114.035 415.633 113.316 414.842C112.608 414.05 112.253 412.873 112.253 411.3V402.946H114.441V411.258C114.441 413.206 115.233 414.175 116.816 414.175C118.493 414.175 119.613 413.55 120.17 412.3V402.946H122.358V415.8H120.274L120.233 414.529Z" fill="#1F1F1F"/>
<path d="M129.904 415.8H127.716V397.55H129.904V415.8Z" fill="#1F1F1F"/>
<path d="M137.631 415.8H135.444V397.55H137.631V415.8Z" fill="#1F1F1F"/>
<path d="M150.463 412.383C150.463 411.8 150.239 411.342 149.796 411.008C149.348 410.675 148.567 410.394 147.442 410.154C146.327 409.92 145.447 409.633 144.796 409.3C144.14 408.967 143.655 408.571 143.338 408.112C143.03 407.654 142.879 407.107 142.879 406.467C142.879 405.415 143.322 404.524 144.213 403.8C145.114 403.081 146.254 402.717 147.629 402.717C149.088 402.717 150.265 403.092 151.171 403.842C152.088 404.592 152.546 405.55 152.546 406.717H150.338C150.338 406.123 150.077 405.607 149.567 405.175C149.051 404.732 148.405 404.508 147.629 404.508C146.838 404.508 146.213 404.685 145.754 405.029C145.306 405.378 145.088 405.836 145.088 406.404C145.088 406.935 145.296 407.336 145.713 407.612C146.129 407.878 146.885 408.133 147.984 408.383C149.077 408.623 149.968 408.915 150.65 409.258C151.327 409.592 151.838 410.003 152.171 410.487C152.504 410.961 152.671 411.545 152.671 412.237C152.671 413.394 152.202 414.316 151.275 415.008C150.359 415.691 149.171 416.029 147.713 416.029C146.681 416.029 145.775 415.847 144.984 415.487C144.192 415.128 143.567 414.623 143.109 413.967C142.661 413.316 142.442 412.607 142.442 411.842H144.65C144.692 412.581 144.984 413.165 145.525 413.592C146.077 414.024 146.806 414.237 147.713 414.237C148.546 414.237 149.213 414.071 149.713 413.737C150.213 413.404 150.463 412.956 150.463 412.383Z" fill="#1F1F1F"/>
<path d="M160.329 399.821V402.946H162.725V404.633H160.329V412.612C160.329 413.128 160.433 413.519 160.642 413.779C160.861 414.029 161.23 414.154 161.746 414.154C161.996 414.154 162.34 414.107 162.788 414.008V415.8C162.204 415.951 161.642 416.029 161.1 416.029C160.111 416.029 159.371 415.737 158.871 415.154C158.371 414.56 158.121 413.711 158.121 412.612V404.633H155.788V402.946H158.121V399.821H160.329Z" fill="#1F1F1F"/>
<path d="M175.058 415.8C174.933 415.55 174.828 415.102 174.745 414.446C173.714 415.503 172.495 416.029 171.078 416.029C169.813 416.029 168.771 415.675 167.953 414.967C167.146 414.248 166.745 413.336 166.745 412.237C166.745 410.904 167.25 409.873 168.266 409.133C169.292 408.383 170.729 408.008 172.578 408.008H174.703V406.987C174.703 406.227 174.474 405.612 174.016 405.154C173.558 404.696 172.881 404.467 171.995 404.467C171.203 404.467 170.542 404.67 170.016 405.071C169.485 405.477 169.224 405.956 169.224 406.508H167.016C167.016 405.873 167.235 405.253 167.683 404.654C168.141 404.06 168.756 403.586 169.537 403.237C170.328 402.894 171.188 402.717 172.12 402.717C173.604 402.717 174.766 403.086 175.599 403.821C176.443 404.56 176.881 405.581 176.912 406.883V412.8C176.912 413.982 177.058 414.92 177.349 415.612V415.8H175.058ZM171.412 414.133C172.089 414.133 172.735 413.956 173.349 413.592C173.974 413.232 174.422 412.769 174.703 412.196V409.571H172.995C170.297 409.571 168.953 410.357 168.953 411.925C168.953 412.623 169.183 413.165 169.641 413.55C170.099 413.941 170.688 414.133 171.412 414.133Z" fill="#1F1F1F"/>
<path d="M187.321 414.237C188.113 414.237 188.801 414.003 189.384 413.529C189.967 413.06 190.29 412.467 190.363 411.758H192.446C192.405 412.498 192.144 413.196 191.676 413.862C191.202 414.519 190.577 415.045 189.801 415.446C189.019 415.831 188.196 416.029 187.321 416.029C185.571 416.029 184.176 415.446 183.134 414.279C182.103 413.112 181.592 411.519 181.592 409.487V409.112C181.592 407.862 181.821 406.753 182.28 405.779C182.749 404.81 183.41 404.06 184.259 403.529C185.118 402.987 186.139 402.717 187.321 402.717C188.764 402.717 189.957 403.149 190.905 404.008C191.863 404.873 192.374 405.987 192.446 407.362H190.363C190.29 406.529 189.972 405.852 189.405 405.321C188.847 404.779 188.155 404.508 187.321 404.508C186.196 404.508 185.327 404.915 184.717 405.717C184.103 406.524 183.801 407.685 183.801 409.196V409.612C183.801 411.102 184.103 412.248 184.717 413.05C185.327 413.842 186.196 414.237 187.321 414.237Z" fill="#1F1F1F"/>
<path d="M200.316 409.842L198.941 411.279V415.8H196.732V397.55H198.941V408.592L200.107 407.175L204.128 402.946H206.795L201.795 408.321L207.378 415.8H204.795L200.316 409.842Z" fill="#1F1F1F"/>
<path d="M218.189 409.258C218.189 407.29 218.653 405.706 219.585 404.508C220.528 403.316 221.757 402.717 223.273 402.717C224.773 402.717 225.96 403.232 226.835 404.258V397.55H229.044V415.8H227.023L226.919 414.425C226.028 415.498 224.804 416.029 223.252 416.029C221.752 416.029 220.528 415.425 219.585 414.217C218.653 412.998 218.189 411.399 218.189 409.425V409.258ZM220.398 409.508C220.398 410.967 220.695 412.112 221.294 412.946C221.887 413.769 222.721 414.175 223.794 414.175C225.179 414.175 226.195 413.55 226.835 412.3V406.383C226.179 405.175 225.174 404.571 223.814 404.571C222.731 404.571 221.887 404.987 221.294 405.821C220.695 406.654 220.398 407.883 220.398 409.508Z" fill="#1F1F1F"/>
<path d="M239.607 416.029C237.857 416.029 236.43 415.461 235.336 414.321C234.253 413.185 233.711 411.654 233.711 409.737V409.321C233.711 408.045 233.951 406.904 234.44 405.904C234.925 404.904 235.607 404.128 236.482 403.571C237.357 403.003 238.305 402.717 239.336 402.717C241.003 402.717 242.3 403.269 243.232 404.362C244.159 405.461 244.628 407.04 244.628 409.092V410.008H235.92C235.946 411.274 236.315 412.295 237.024 413.071C237.732 413.852 238.633 414.237 239.732 414.237C240.508 414.237 241.159 414.086 241.69 413.779C242.232 413.461 242.701 413.04 243.107 412.508L244.461 413.55C243.378 415.206 241.758 416.029 239.607 416.029ZM239.336 404.508C238.446 404.508 237.696 404.836 237.086 405.487C236.487 406.128 236.117 407.029 235.982 408.196H242.42V408.029C242.362 406.92 242.065 406.06 241.524 405.446C240.982 404.821 240.253 404.508 239.336 404.508Z" fill="#1F1F1F"/>
<path d="M253.214 412.821L256.401 402.946H258.651L254.047 415.8H252.36L247.714 402.946H249.964L253.214 412.821Z" fill="#1F1F1F"/>
<path d="M267.925 416.029C266.175 416.029 264.748 415.461 263.654 414.321C262.57 413.185 262.029 411.654 262.029 409.737V409.321C262.029 408.045 262.268 406.904 262.758 405.904C263.242 404.904 263.925 404.128 264.8 403.571C265.675 403.003 266.623 402.717 267.654 402.717C269.32 402.717 270.617 403.269 271.55 404.362C272.477 405.461 272.945 407.04 272.945 409.092V410.008H264.237C264.263 411.274 264.633 412.295 265.341 413.071C266.05 413.852 266.951 414.237 268.05 414.237C268.826 414.237 269.477 414.086 270.008 413.779C270.55 413.461 271.018 413.04 271.425 412.508L272.779 413.55C271.695 415.206 270.076 416.029 267.925 416.029ZM267.654 404.508C266.763 404.508 266.013 404.836 265.404 405.487C264.805 406.128 264.435 407.029 264.3 408.196H270.737V408.029C270.68 406.92 270.383 406.06 269.841 405.446C269.3 404.821 268.57 404.508 267.654 404.508Z" fill="#1F1F1F"/>
<path d="M279.677 415.8H277.49V397.55H279.677V415.8Z" fill="#1F1F1F"/>
<path d="M284.446 409.258C284.446 407.998 284.686 406.862 285.175 405.862C285.675 404.852 286.363 404.071 287.238 403.529C288.123 402.987 289.139 402.717 290.28 402.717C292.03 402.717 293.446 403.321 294.53 404.529C295.613 405.737 296.155 407.352 296.155 409.362V409.508C296.155 410.758 295.91 411.883 295.425 412.883C294.951 413.883 294.264 414.665 293.363 415.217C292.472 415.758 291.451 416.029 290.3 416.029C288.561 416.029 287.155 415.425 286.071 414.217C284.988 413.008 284.446 411.404 284.446 409.404V409.258ZM286.655 409.508C286.655 410.941 286.978 412.086 287.634 412.946C288.3 413.81 289.186 414.237 290.3 414.237C291.41 414.237 292.29 413.8 292.946 412.925C293.613 412.05 293.946 410.831 293.946 409.258C293.946 407.842 293.613 406.696 292.946 405.821C292.28 404.946 291.389 404.508 290.28 404.508C289.196 404.508 288.321 404.946 287.655 405.821C286.988 406.685 286.655 407.915 286.655 409.508Z" fill="#1F1F1F"/>
<path d="M311.58 409.508C311.58 411.467 311.127 413.045 310.226 414.237C309.336 415.435 308.127 416.029 306.601 416.029C305.044 416.029 303.815 415.54 302.914 414.55V420.737H300.726V402.946H302.726L302.83 404.362C303.732 403.269 304.976 402.717 306.56 402.717C308.112 402.717 309.336 403.3 310.226 404.467C311.127 405.623 311.58 407.237 311.58 409.321V409.508ZM309.393 409.258C309.393 407.816 309.08 406.675 308.455 405.842C307.841 404.998 306.997 404.571 305.914 404.571C304.58 404.571 303.58 405.165 302.914 406.342V412.487C303.58 413.654 304.586 414.237 305.935 414.237C306.987 414.237 307.83 413.821 308.455 412.987C309.08 412.154 309.393 410.915 309.393 409.258Z" fill="#1F1F1F"/>
<path d="M321.531 416.029C319.781 416.029 318.354 415.461 317.26 414.321C316.177 413.185 315.635 411.654 315.635 409.737V409.321C315.635 408.045 315.875 406.904 316.364 405.904C316.849 404.904 317.531 404.128 318.406 403.571C319.281 403.003 320.229 402.717 321.26 402.717C322.927 402.717 324.224 403.269 325.156 404.362C326.083 405.461 326.552 407.04 326.552 409.092V410.008H317.843C317.869 411.274 318.239 412.295 318.948 413.071C319.656 413.852 320.557 414.237 321.656 414.237C322.432 414.237 323.083 414.086 323.614 413.779C324.156 413.461 324.625 413.04 325.031 412.508L326.385 413.55C325.302 415.206 323.682 416.029 321.531 416.029ZM321.26 404.508C320.369 404.508 319.619 404.836 319.01 405.487C318.411 406.128 318.041 407.029 317.906 408.196H324.343V408.029C324.286 406.92 323.989 406.06 323.448 405.446C322.906 404.821 322.177 404.508 321.26 404.508Z" fill="#1F1F1F"/>
<path d="M337.117 404.925C336.784 404.873 336.419 404.842 336.034 404.842C334.586 404.842 333.607 405.456 333.096 406.675V415.8H330.909V402.946H333.055L333.075 404.425C333.794 403.29 334.815 402.717 336.138 402.717C336.565 402.717 336.893 402.769 337.117 402.862V404.925Z" fill="#1F1F1F"/>
<mask id="mask0_1_1390" style="mask-type:luminance" maskUnits="userSpaceOnUse" x="112" y="1" width="211" height="208">
<path d="M112 1.71423H323V208.694H112V1.71423Z" fill="white"/>
</mask>
<g mask="url(#mask0_1_1390)">
<path d="M322.954 208.665H270.325V106.876C270.325 77.8349 246.637 54.201 217.508 54.201C188.38 54.201 164.692 77.8265 164.692 106.876V208.665H112.071V106.876C112.071 48.8859 159.376 1.71423 217.508 1.71423C275.636 1.71423 322.946 48.8859 322.946 106.876V208.665H322.954Z" fill="#1F1F1F"/>
</g>
<g opacity="0.5">
<mask id="mask1_1_1390" style="mask-type:luminance" maskUnits="userSpaceOnUse" x="114" y="0" width="207" height="212">
<path d="M114 211.369L114 0.368713H320.98V211.369H114Z" fill="white"/>
</mask>
<g mask="url(#mask1_1_1390)">
<path d="M320.951 0.414665V53.0435H219.162C190.121 53.0435 166.487 76.7317 166.487 105.86C166.487 134.989 190.112 158.677 219.162 158.677H320.951V211.298H219.162C161.172 211.298 114 163.992 114 105.86C114 47.7326 161.172 0.423027 219.162 0.423027H320.951V0.414665Z" fill="#1F1F1F"/>
</g>
</g>
</svg>
