<svg width="893" height="211" viewBox="0 0 893 211" fill="none" xmlns="http://www.w3.org/2000/svg">
<path d="M307.181 114.162H292V39.2592H304.053L307.181 45.8311C309.685 43.4205 312.706 41.4403 316.25 39.8906C319.787 38.3266 323.64 37.5374 327.815 37.5374C330.527 37.5374 333.598 37.9607 337.028 38.8001C340.471 39.6252 343.671 41.182 346.641 43.4779C349.626 45.7737 352.13 48.9593 354.16 53.0344C356.184 57.0952 357.202 62.3542 357.202 68.8184V114.162H342.825V68.6462C342.825 65.4177 342.322 62.677 341.332 60.4385C340.357 58.2001 339.051 56.4064 337.429 55.0433C335.822 53.6873 333.993 52.7187 331.948 52.1448C329.918 51.5708 327.815 51.2838 325.634 51.2838C323.97 51.2838 322.061 51.5995 319.923 52.2309C317.778 52.8622 315.769 53.8882 313.897 55.3016C312.017 56.7006 310.431 58.4727 309.133 60.6107C307.827 62.7344 307.181 65.3675 307.181 68.5028V114.162Z" fill="#1F1F1F"/>
<path d="M446.815 39.2592V114.162H433.987L431.634 105.552C429.029 108.996 425.693 111.608 421.618 113.387C417.557 115.145 413.446 116.027 409.278 116.027C404.069 116.027 399.205 115.008 394.67 112.985C390.136 110.962 386.176 108.178 382.789 104.634C379.403 101.075 376.712 96.9068 374.725 92.1214C372.731 87.3216 371.74 82.2133 371.74 76.7965C371.74 71.3654 372.731 66.2571 374.725 61.4717C376.712 56.6719 379.403 52.5035 382.789 48.9593C386.176 45.4007 390.136 42.6098 394.67 40.5794C399.205 38.5561 404.069 37.5374 409.278 37.5374C413.446 37.5374 417.457 38.3553 421.302 39.9767C425.162 41.5838 428.606 44.1093 431.634 47.553L433.987 39.2592H446.815ZM409.278 102.596C412.298 102.596 415.168 101.922 417.887 100.559C420.599 99.2027 422.945 97.3588 424.918 95.0199C426.906 92.6667 428.477 89.9332 429.625 86.8122C430.773 83.6769 431.347 80.3408 431.347 76.7965C431.347 73.238 430.773 69.9018 429.625 66.7809C428.477 63.6456 426.906 60.9121 424.918 58.5732C422.945 56.2199 420.599 54.376 417.887 53.0344C415.168 51.6784 412.298 50.9968 409.278 50.9968C406.25 50.9968 403.38 51.6784 400.668 53.0344C397.971 54.376 395.625 56.2199 393.637 58.5732C391.664 60.9121 390.107 63.6456 388.959 66.7809C387.811 69.9018 387.238 73.238 387.238 76.7965C387.238 80.3408 387.811 83.6769 388.959 86.8122C390.107 89.9332 391.664 92.6667 393.637 95.0199C395.625 97.3588 397.971 99.2027 400.668 100.559C403.38 101.922 406.25 102.596 409.278 102.596Z" fill="#1F1F1F"/>
<path d="M502.952 114.018C498.662 115.467 494.436 116.35 490.268 116.658C486.114 116.981 482.361 116.386 479.018 114.879C475.689 113.372 472.977 110.711 470.897 106.901C468.809 103.098 467.768 97.7462 467.768 90.8586V52.8621H456.806V42.3873L467.768 39.2592V19.2278H482.921V39.2592H503.268V52.8621H482.921V93.2119C482.921 95.7229 483.208 97.7031 483.782 99.1524C484.356 100.609 485.317 101.699 486.681 102.424C488.037 103.156 489.809 103.515 491.99 103.515C494.185 103.515 496.847 103.314 499.968 102.912L502.952 114.018Z" fill="#1F1F1F"/>
<path d="M586.764 39.2591V114.161H573.936L571.583 105.552C568.978 108.996 565.642 111.607 561.567 113.387C557.506 115.144 553.395 116.027 549.227 116.027C544.018 116.027 539.154 115.008 534.619 112.985C530.085 110.962 526.125 108.178 522.738 104.634C519.352 101.075 516.661 96.9067 514.674 92.1212C512.68 87.3214 511.689 82.2132 511.689 76.7964C511.689 71.3652 512.68 66.2569 514.674 61.4715C516.661 56.6717 519.352 52.5033 522.738 48.9591C526.125 45.4005 530.085 42.6096 534.619 40.5792C539.154 38.556 544.018 37.5372 549.227 37.5372C553.395 37.5372 557.406 38.3551 561.251 39.9765C565.111 41.5836 568.555 44.1091 571.583 47.5529L573.936 39.2591H586.764ZM549.227 102.596C552.247 102.596 555.117 101.922 557.836 100.559C560.548 99.2025 562.894 97.3587 564.867 95.0198C566.855 92.6665 568.426 89.933 569.574 86.8121C570.722 83.6768 571.296 80.3406 571.296 76.7964C571.296 73.2378 570.722 69.9016 569.574 66.7807C568.426 63.6454 566.855 60.9119 564.867 58.573C562.894 56.2197 560.548 54.3759 557.836 53.0342C555.117 51.6782 552.247 50.9967 549.227 50.9967C546.199 50.9967 543.329 51.6782 540.617 53.0342C537.92 54.3759 535.574 56.2197 533.586 58.573C531.613 60.9119 530.056 63.6454 528.908 66.7807C527.76 69.9016 527.187 73.2378 527.187 76.7964C527.187 80.3406 527.76 83.6768 528.908 86.8121C530.056 89.933 531.613 92.6665 533.586 95.0198C535.574 97.3587 537.92 99.2025 540.617 100.559C543.329 101.922 546.199 102.596 549.227 102.596ZM564.092 3.30017L555.339 31.1375H542.971L546.73 3.30017H564.092Z" fill="#1F1F1F"/>
<path d="M618.192 0V114.162H603.011V0H618.192Z" fill="#1F1F1F"/>
<path d="M651.17 114.162H636.017V39.2593H651.026L651.17 114.162ZM643.507 22.9874C640.81 22.9874 638.521 22.0331 636.648 20.1175C634.769 18.1876 633.836 15.863 633.836 13.1439C633.836 10.4319 634.769 8.13601 636.648 6.25628C638.521 4.38372 640.81 3.44385 643.507 3.44385C646.219 3.44385 648.515 4.38372 650.395 6.25628C652.267 8.13601 653.207 10.4319 653.207 13.1439C653.207 15.863 652.267 18.1876 650.395 20.1175C648.515 22.0331 646.219 22.9874 643.507 22.9874Z" fill="#1F1F1F"/>
<path d="M739.223 39.2592V114.162H726.394L724.041 105.552C721.437 108.996 718.101 111.608 714.025 113.387C709.965 115.145 705.854 116.027 701.685 116.027C696.477 116.027 691.612 115.008 687.078 112.985C682.544 110.962 678.583 108.178 675.197 104.634C671.81 101.075 669.12 96.9068 667.133 92.1214C665.138 87.3216 664.148 82.2133 664.148 76.7965C664.148 71.3654 665.138 66.2571 667.133 61.4717C669.12 56.6719 671.81 52.5035 675.197 48.9593C678.583 45.4007 682.544 42.6098 687.078 40.5794C691.612 38.5561 696.477 37.5374 701.685 37.5374C705.854 37.5374 709.864 38.3553 713.71 39.9767C717.57 41.5838 721.014 44.1093 724.041 47.553L726.394 39.2592H739.223ZM701.685 102.596C704.706 102.596 707.576 101.922 710.295 100.559C713.007 99.2027 715.353 97.3588 717.326 95.0199C719.313 92.6667 720.884 89.9332 722.032 86.8122C723.18 83.6769 723.754 80.3408 723.754 76.7965C723.754 73.238 723.18 69.9018 722.032 66.7809C720.884 63.6456 719.313 60.9121 717.326 58.5732C715.353 56.2199 713.007 54.376 710.295 53.0344C707.576 51.6784 704.706 50.9968 701.685 50.9968C698.658 50.9968 695.788 51.6784 693.076 53.0344C690.378 54.376 688.032 56.2199 686.045 58.5732C684.072 60.9121 682.515 63.6456 681.367 66.7809C680.219 69.9018 679.645 73.238 679.645 76.7965C679.645 80.3408 680.219 83.6769 681.367 86.8122C682.515 89.9332 684.072 92.6667 686.045 95.0199C688.032 97.3588 690.378 99.2027 693.076 100.559C695.788 101.922 698.658 102.596 701.685 102.596Z" fill="#1F1F1F"/>
<path d="M829.915 116.027C824.692 116.027 819.813 115.008 815.279 112.985C810.745 110.962 806.784 108.178 803.398 104.634C800.012 101.075 797.321 96.9068 795.334 92.1214C793.361 87.3216 792.378 82.2133 792.378 76.7965C792.378 71.3654 793.361 66.2571 795.334 61.4717C797.321 56.6719 800.012 52.5035 803.398 48.9593C806.784 45.4007 810.745 42.6098 815.279 40.5794C819.813 38.5561 824.692 37.5374 829.915 37.5374C835.956 37.5374 841.538 38.9005 846.646 41.6125C851.755 44.3101 856.031 48.0122 859.474 52.7187L848.827 60.9838C846.74 57.9633 844.107 55.5885 840.935 53.8667C837.757 52.1448 834.342 51.2838 830.69 51.2838C827.569 51.2838 824.592 51.9439 821.765 53.264C818.953 54.5698 816.499 56.3634 814.418 58.6593C812.33 60.9408 810.687 63.6456 809.482 66.7809C808.291 69.9018 807.703 73.238 807.703 76.7965C807.703 80.3408 808.291 83.6769 809.482 86.8122C810.687 89.9332 812.33 92.6667 814.418 95.0199C816.499 97.3588 818.953 99.2027 821.765 100.559C824.592 101.922 827.569 102.596 830.69 102.596C834.765 102.596 838.467 101.506 841.796 99.3247C845.125 97.1292 847.83 94.202 849.918 90.543L860.249 99.6116C856.92 104.627 852.594 108.616 847.278 111.579C841.954 114.542 836.171 116.027 829.915 116.027Z" fill="#1F1F1F"/>
<path d="M872.903 106.04C872.903 103.328 873.836 101.004 875.716 99.0664C877.588 97.1364 879.884 96.1678 882.603 96.1678C885.315 96.1678 887.611 97.1364 889.491 99.0664C891.363 101.004 892.303 103.328 892.303 106.04C892.303 108.738 891.363 111.026 889.491 112.899C887.611 114.771 885.315 115.711 882.603 115.711C879.884 115.711 877.588 114.771 875.716 112.899C873.836 111.026 872.903 108.738 872.903 106.04Z" fill="#1F1F1F"/>
<path d="M294.812 201.484V186.102H292V183.777H294.812V181.969C294.812 180.061 295.315 178.583 296.333 177.55C297.345 176.517 298.78 176 300.638 176C301.327 176 302.016 176.1 302.704 176.287L302.561 178.726C302.044 178.633 301.485 178.583 300.896 178.583C299.921 178.583 299.16 178.87 298.629 179.444C298.091 180.018 297.826 180.843 297.826 181.912V183.777H301.614V186.102H297.826V201.484H294.812Z" fill="#1F1F1F"/>
<path d="M318.4 199.733C317.209 201.111 315.48 201.8 313.205 201.8C311.311 201.8 309.862 201.254 308.872 200.164C307.896 199.073 307.408 197.452 307.408 195.285V183.777H310.422V195.228C310.422 197.911 311.512 199.246 313.693 199.246C316.003 199.246 317.546 198.385 318.314 196.663V183.777H321.327V201.484H318.457L318.4 199.733Z" fill="#1F1F1F"/>
<path d="M331.722 201.484H328.708V176.344H331.722V201.484Z" fill="#1F1F1F"/>
<path d="M342.366 201.484H339.353V176.344H342.366V201.484Z" fill="#1F1F1F"/>
<path d="M360.042 196.777C360.042 195.974 359.734 195.342 359.124 194.883C358.507 194.424 357.431 194.037 355.881 193.707C354.346 193.384 353.133 192.989 352.236 192.53C351.332 192.071 350.665 191.526 350.227 190.894C349.804 190.263 349.596 189.51 349.596 188.627C349.596 187.178 350.206 185.951 351.433 184.954C352.674 183.964 354.245 183.461 356.139 183.461C358.148 183.461 359.77 183.978 361.018 185.011C362.281 186.044 362.912 187.364 362.912 188.971H359.87C359.87 188.154 359.511 187.443 358.808 186.848C358.098 186.238 357.208 185.929 356.139 185.929C355.049 185.929 354.188 186.173 353.556 186.647C352.939 187.128 352.638 187.759 352.638 188.541C352.638 189.273 352.925 189.825 353.499 190.206C354.073 190.571 355.113 190.923 356.627 191.267C358.134 191.597 359.361 191.999 360.301 192.473C361.233 192.932 361.936 193.499 362.395 194.166C362.855 194.819 363.084 195.622 363.084 196.577C363.084 198.169 362.439 199.439 361.161 200.393C359.899 201.333 358.263 201.8 356.254 201.8C354.834 201.8 353.585 201.548 352.495 201.053C351.404 200.558 350.543 199.862 349.912 198.958C349.295 198.062 348.993 197.086 348.993 196.031H352.035C352.093 197.05 352.495 197.854 353.241 198.442C354.001 199.037 355.006 199.332 356.254 199.332C357.402 199.332 358.32 199.102 359.009 198.643C359.698 198.184 360.042 197.567 360.042 196.777Z" fill="#1F1F1F"/>
<path d="M373.633 179.472V183.777H376.934V186.102H373.633V197.093C373.633 197.803 373.777 198.342 374.064 198.7C374.365 199.045 374.875 199.217 375.585 199.217C375.929 199.217 376.403 199.152 377.02 199.016V201.484C376.216 201.692 375.441 201.8 374.695 201.8C373.332 201.8 372.313 201.398 371.625 200.594C370.936 199.776 370.591 198.607 370.591 197.093V186.102H367.377V183.777H370.591V179.472H373.633Z" fill="#1F1F1F"/>
<path d="M393.922 201.484C393.75 201.14 393.606 200.523 393.492 199.619C392.071 201.075 390.392 201.8 388.441 201.8C386.697 201.8 385.262 201.312 384.136 200.336C383.024 199.346 382.471 198.09 382.471 196.577C382.471 194.74 383.167 193.319 384.566 192.3C385.98 191.267 387.96 190.751 390.507 190.751H393.434V189.345C393.434 188.297 393.118 187.45 392.487 186.819C391.856 186.188 390.923 185.872 389.703 185.872C388.613 185.872 387.702 186.152 386.977 186.704C386.245 187.264 385.887 187.924 385.887 188.685H382.845C382.845 187.809 383.146 186.955 383.763 186.13C384.394 185.312 385.241 184.66 386.317 184.179C387.408 183.705 388.591 183.461 389.876 183.461C391.92 183.461 393.52 183.971 394.668 184.982C395.83 186.001 396.433 187.407 396.476 189.201V197.351C396.476 198.98 396.677 200.271 397.079 201.226V201.484H393.922ZM388.9 199.188C389.833 199.188 390.722 198.944 391.569 198.442C392.43 197.947 393.047 197.308 393.434 196.519V192.903H391.081C387.364 192.903 385.513 193.987 385.513 196.146C385.513 197.107 385.829 197.854 386.46 198.385C387.092 198.923 387.903 199.188 388.9 199.188Z" fill="#1F1F1F"/>
<path d="M410.816 199.332C411.906 199.332 412.853 199.009 413.657 198.356C414.46 197.71 414.905 196.892 415.006 195.916H417.875C417.818 196.935 417.459 197.897 416.814 198.815C416.161 199.719 415.3 200.444 414.231 200.996C413.155 201.527 412.021 201.8 410.816 201.8C408.405 201.8 406.482 200.996 405.047 199.389C403.627 197.782 402.924 195.586 402.924 192.788V192.272C402.924 190.55 403.239 189.022 403.871 187.68C404.516 186.346 405.428 185.312 406.597 184.581C407.781 183.835 409.187 183.461 410.816 183.461C412.803 183.461 414.446 184.057 415.752 185.241C417.072 186.432 417.775 187.967 417.875 189.861H415.006C414.905 188.713 414.467 187.781 413.685 187.049C412.918 186.303 411.964 185.929 410.816 185.929C409.266 185.929 408.068 186.489 407.228 187.594C406.382 188.706 405.966 190.306 405.966 192.387V192.961C405.966 195.012 406.382 196.591 407.228 197.696C408.068 198.786 409.266 199.332 410.816 199.332Z" fill="#1F1F1F"/>
<path d="M428.715 193.276L426.821 195.257V201.484H423.779V176.344H426.821V191.554L428.428 189.603L433.967 183.777H437.641L430.753 191.181L438.444 201.484H434.886L428.715 193.276Z" fill="#1F1F1F"/>
<path d="M453.337 192.473C453.337 189.761 453.975 187.58 455.259 185.93C456.558 184.287 458.251 183.462 460.339 183.462C462.405 183.462 464.041 184.172 465.246 185.585V176.344H468.288V201.484H465.505L465.361 199.59C464.134 201.068 462.448 201.8 460.31 201.8C458.244 201.8 456.558 200.967 455.259 199.303C453.975 197.624 453.337 195.422 453.337 192.702V192.473ZM456.379 192.817C456.379 194.826 456.788 196.404 457.613 197.552C458.431 198.686 459.579 199.246 461.056 199.246C462.965 199.246 464.364 198.385 465.246 196.663V188.512C464.342 186.848 462.958 186.016 461.085 186.016C459.593 186.016 458.431 186.59 457.613 187.738C456.788 188.885 456.379 190.579 456.379 192.817Z" fill="#1F1F1F"/>
<path d="M482.84 201.8C480.429 201.8 478.463 201.018 476.957 199.446C475.464 197.882 474.718 195.773 474.718 193.133V192.559C474.718 190.801 475.048 189.23 475.723 187.852C476.39 186.475 477.33 185.406 478.535 184.638C479.74 183.856 481.046 183.461 482.467 183.461C484.763 183.461 486.549 184.222 487.833 185.729C489.11 187.242 489.756 189.416 489.756 192.243V193.506H477.76C477.796 195.249 478.306 196.655 479.281 197.724C480.257 198.801 481.498 199.332 483.012 199.332C484.081 199.332 484.978 199.123 485.71 198.7C486.456 198.263 487.102 197.681 487.661 196.95L489.527 198.385C488.034 200.666 485.803 201.8 482.84 201.8ZM482.467 185.929C481.24 185.929 480.207 186.381 479.367 187.278C478.542 188.161 478.033 189.402 477.846 191.009H486.714V190.779C486.635 189.251 486.226 188.067 485.48 187.221C484.734 186.36 483.73 185.929 482.467 185.929Z" fill="#1F1F1F"/>
<path d="M501.583 197.38L505.974 183.777H509.074L502.731 201.484H500.407L494.007 183.777H497.106L501.583 197.38Z" fill="#1F1F1F"/>
<path d="M521.848 201.8C519.437 201.8 517.471 201.018 515.965 199.446C514.472 197.882 513.726 195.773 513.726 193.133V192.559C513.726 190.801 514.056 189.23 514.731 187.852C515.398 186.475 516.338 185.406 517.543 184.638C518.748 183.856 520.054 183.461 521.475 183.461C523.77 183.461 525.557 184.222 526.841 185.729C528.118 187.242 528.764 189.416 528.764 192.243V193.506H516.768C516.804 195.249 517.313 196.655 518.289 197.724C519.265 198.801 520.506 199.332 522.02 199.332C523.089 199.332 523.986 199.123 524.718 198.7C525.464 198.263 526.109 197.681 526.669 196.95L528.534 198.385C527.042 200.666 524.811 201.8 521.848 201.8ZM521.475 185.929C520.248 185.929 519.215 186.381 518.375 187.278C517.55 188.161 517.041 189.402 516.854 191.009H525.722V190.779C525.643 189.251 525.234 188.067 524.488 187.221C523.742 186.36 522.737 185.929 521.475 185.929Z" fill="#1F1F1F"/>
<path d="M538.037 201.484H535.024V176.344H538.037V201.484Z" fill="#1F1F1F"/>
<path d="M544.606 192.473C544.606 190.736 544.936 189.172 545.611 187.795C546.3 186.403 547.247 185.327 548.452 184.581C549.672 183.835 551.071 183.461 552.642 183.461C555.053 183.461 557.004 184.294 558.496 185.958C559.989 187.623 560.735 189.847 560.735 192.616V192.817C560.735 194.539 560.398 196.089 559.73 197.466C559.078 198.844 558.13 199.92 556.889 200.68C555.662 201.427 554.256 201.8 552.671 201.8C550.274 201.8 548.337 200.967 546.845 199.303C545.353 197.638 544.606 195.429 544.606 192.674V192.473ZM547.648 192.817C547.648 194.79 548.093 196.368 548.997 197.552C549.916 198.743 551.135 199.332 552.671 199.332C554.199 199.332 555.411 198.729 556.315 197.524C557.234 196.318 557.693 194.639 557.693 192.473C557.693 190.521 557.234 188.943 556.315 187.737C555.397 186.532 554.17 185.929 552.642 185.929C551.15 185.929 549.944 186.532 549.026 187.737C548.108 188.928 547.648 190.622 547.648 192.817Z" fill="#1F1F1F"/>
<path d="M581.984 192.817C581.984 195.515 581.36 197.689 580.119 199.332C578.892 200.982 577.228 201.8 575.125 201.8C572.98 201.8 571.287 201.125 570.046 199.762V208.285H567.032V183.777H569.788L569.931 185.729C571.172 184.222 572.887 183.461 575.068 183.461C577.206 183.461 578.892 184.265 580.119 185.872C581.36 187.465 581.984 189.689 581.984 192.559V192.817ZM578.971 192.473C578.971 190.485 578.54 188.914 577.68 187.766C576.833 186.604 575.671 186.016 574.178 186.016C572.342 186.016 570.964 186.833 570.046 188.455V196.921C570.964 198.528 572.349 199.332 574.207 199.332C575.656 199.332 576.819 198.758 577.68 197.61C578.54 196.462 578.971 194.754 578.971 192.473Z" fill="#1F1F1F"/>
<path d="M595.691 201.8C593.281 201.8 591.315 201.018 589.808 199.446C588.316 197.882 587.57 195.773 587.57 193.133V192.559C587.57 190.801 587.9 189.23 588.574 187.852C589.241 186.475 590.181 185.406 591.386 184.638C592.592 183.856 593.898 183.461 595.318 183.461C597.614 183.461 599.4 184.222 600.685 185.729C601.962 187.242 602.607 189.416 602.607 192.243V193.506H590.612C590.647 195.249 591.157 196.655 592.133 197.724C593.108 198.801 594.35 199.332 595.863 199.332C596.932 199.332 597.829 199.123 598.561 198.7C599.307 198.263 599.953 197.681 600.512 196.95L602.378 198.385C600.886 200.666 598.654 201.8 595.691 201.8ZM595.318 185.929C594.091 185.929 593.058 186.381 592.219 187.278C591.394 188.161 590.884 189.402 590.698 191.009H599.565V190.779C599.487 189.251 599.078 188.067 598.331 187.221C597.585 186.36 596.581 185.929 595.318 185.929Z" fill="#1F1F1F"/>
<path d="M617.161 186.503C616.702 186.432 616.2 186.389 615.669 186.389C613.674 186.389 612.326 187.235 611.622 188.914V201.484H608.609V183.777H611.565L611.594 185.815C612.584 184.251 613.99 183.461 615.812 183.461C616.401 183.461 616.853 183.533 617.161 183.662V186.503Z" fill="#1F1F1F"/>
<mask id="mask0_1_2236" style="mask-type:luminance" maskUnits="userSpaceOnUse" x="0" y="1" width="211" height="208">
<path d="M0 1.34546H211V208.326H0V1.34546Z" fill="white"/>
</mask>
<g mask="url(#mask0_1_2236)">
<path d="M210.954 208.296H158.325V106.507C158.325 77.4661 134.637 53.8322 105.508 53.8322C76.3797 53.8322 52.6915 77.4577 52.6915 106.507V208.296H0.0710449V106.507C0.0710449 48.5171 47.3764 1.34546 105.508 1.34546C163.636 1.34546 210.946 48.5171 210.946 106.507V208.296H210.954Z" fill="#1F1F1F"/>
</g>
<g opacity="0.5">
<mask id="mask1_1_2236" style="mask-type:luminance" maskUnits="userSpaceOnUse" x="2" y="0" width="207" height="211">
<path d="M2 211L2 0H208.98V211H2Z" fill="white"/>
</mask>
<g mask="url(#mask1_1_2236)">
<path d="M208.951 0.0459442V52.6748H107.162C78.1206 52.6748 54.4868 76.363 54.4868 105.492C54.4868 134.62 78.1123 158.309 107.162 158.309H208.951V210.929H107.162C49.1716 210.929 2 163.624 2 105.492C2 47.3638 49.1716 0.054306 107.162 0.054306H208.951V0.0459442Z" fill="#1F1F1F"/>
</g>
</g>
</svg>
