<svg width="211" height="211" viewBox="0 0 211 211" fill="none" xmlns="http://www.w3.org/2000/svg">
<mask id="mask0_1_3080" style="mask-type:luminance" maskUnits="userSpaceOnUse" x="0" y="1" width="211" height="208">
<path d="M0 1.34552H211V208.326H0V1.34552Z" fill="white"/>
</mask>
<g mask="url(#mask0_1_3080)">
<path d="M210.954 208.297H158.325V106.507C158.325 77.4661 134.637 53.8323 105.508 53.8323C76.3797 53.8323 52.6915 77.4578 52.6915 106.507V208.297H0.0710449V106.507C0.0710449 48.5172 47.3764 1.34552 105.508 1.34552C163.636 1.34552 210.946 48.5172 210.946 106.507V208.297H210.954Z" fill="#8870FF"/>
</g>
<g opacity="0.5">
<mask id="mask1_1_3080" style="mask-type:luminance" maskUnits="userSpaceOnUse" x="2" y="0" width="207" height="211">
<path d="M2 211L2 0H208.98V211H2Z" fill="white"/>
</mask>
<g mask="url(#mask1_1_3080)">
<path d="M208.951 0.045929V52.6748H107.162C78.1206 52.6748 54.4868 76.363 54.4868 105.492C54.4868 134.62 78.1123 158.308 107.162 158.308H208.951V210.929H107.162C49.1716 210.929 2 163.624 2 105.492C2 47.3638 49.1716 0.0542908 107.162 0.0542908H208.951V0.045929Z" fill="#8870FF"/>
</g>
</g>
</svg>
