<svg width="436" height="421" viewBox="0 0 436 421" fill="none" xmlns="http://www.w3.org/2000/svg">
<path d="M11.0208 352.247H0V297.872H8.75L11.0208 302.643C12.8385 300.893 15.0313 299.456 17.6042 298.331C20.1719 297.195 22.9688 296.622 26 296.622C27.9688 296.622 30.1979 296.93 32.6875 297.539C35.1875 298.138 37.5104 299.268 39.6667 300.935C41.8333 302.601 43.651 304.914 45.125 307.872C46.5938 310.82 47.3333 314.638 47.3333 319.331V352.247H36.8958V319.206C36.8958 316.862 36.5312 314.872 35.8125 313.247C35.1042 311.622 34.1562 310.32 32.9792 309.331C31.8125 308.346 30.4844 307.643 29 307.226C27.526 306.81 26 306.601 24.4167 306.601C23.2083 306.601 21.8229 306.831 20.2708 307.289C18.7135 307.747 17.2552 308.492 15.8958 309.518C14.5313 310.534 13.3802 311.82 12.4375 313.372C11.4896 314.914 11.0208 316.825 11.0208 319.101V352.247Z" fill="#1F1F1F"/>
<path d="M112.387 297.872V352.247H103.075L101.366 345.997C99.4757 348.497 97.0539 350.393 94.0955 351.685C91.1476 352.961 88.1632 353.601 85.1372 353.601C81.356 353.601 77.8247 352.862 74.533 351.393C71.2414 349.924 68.3664 347.904 65.908 345.331C63.4497 342.747 61.4966 339.721 60.0539 336.247C58.606 332.763 57.8872 329.055 57.8872 325.122C57.8872 321.18 58.606 317.471 60.0539 313.997C61.4966 310.513 63.4497 307.487 65.908 304.914C68.3664 302.331 71.2414 300.305 74.533 298.831C77.8247 297.362 81.356 296.622 85.1372 296.622C88.1632 296.622 91.0747 297.216 93.8664 298.393C96.6685 299.56 99.1685 301.393 101.366 303.893L103.075 297.872H112.387ZM85.1372 343.851C87.3299 343.851 89.4132 343.362 91.3872 342.372C93.356 341.388 95.0591 340.049 96.4914 338.351C97.9341 336.643 99.0747 334.659 99.908 332.393C100.741 330.117 101.158 327.695 101.158 325.122C101.158 322.539 100.741 320.117 99.908 317.851C99.0747 315.575 97.9341 313.591 96.4914 311.893C95.0591 310.185 93.356 308.846 91.3872 307.872C89.4132 306.888 87.3299 306.393 85.1372 306.393C82.9393 306.393 80.856 306.888 78.8872 307.872C76.9289 308.846 75.2257 310.185 73.783 311.893C72.3507 313.591 71.2205 315.575 70.3872 317.851C69.5539 320.117 69.1372 322.539 69.1372 325.122C69.1372 327.695 69.5539 330.117 70.3872 332.393C71.2205 334.659 72.3507 336.643 73.783 338.351C75.2257 340.049 76.9289 341.388 78.8872 342.372C80.856 343.362 82.9393 343.851 85.1372 343.851Z" fill="#1F1F1F"/>
<path d="M153.14 352.143C150.025 353.195 146.958 353.836 143.932 354.06C140.916 354.294 138.192 353.862 135.765 352.768C133.348 351.674 131.379 349.742 129.869 346.976C128.353 344.216 127.598 340.331 127.598 335.331V307.747H119.64V300.143L127.598 297.872V283.331H138.598V297.872H153.369V307.747H138.598V337.039C138.598 338.862 138.807 340.299 139.223 341.351C139.64 342.409 140.338 343.2 141.327 343.726C142.312 344.258 143.598 344.518 145.182 344.518C146.775 344.518 148.708 344.372 150.973 344.081L153.14 352.143Z" fill="#1F1F1F"/>
<path d="M213.982 297.872V352.247H204.67L202.962 345.997C201.071 348.497 198.649 350.393 195.691 351.685C192.743 352.961 189.758 353.601 186.732 353.601C182.951 353.601 179.42 352.862 176.128 351.393C172.837 349.924 169.962 347.903 167.503 345.331C165.045 342.747 163.092 339.721 161.649 336.247C160.201 332.763 159.482 329.055 159.482 325.122C159.482 321.18 160.201 317.471 161.649 313.997C163.092 310.513 165.045 307.487 167.503 304.914C169.962 302.331 172.837 300.305 176.128 298.831C179.42 297.362 182.951 296.622 186.732 296.622C189.758 296.622 192.67 297.216 195.462 298.393C198.264 299.56 200.764 301.393 202.962 303.893L204.67 297.872H213.982ZM186.732 343.851C188.925 343.851 191.008 343.362 192.982 342.372C194.951 341.388 196.654 340.049 198.087 338.351C199.529 336.643 200.67 334.659 201.503 332.393C202.337 330.117 202.753 327.695 202.753 325.122C202.753 322.539 202.337 320.117 201.503 317.851C200.67 315.575 199.529 313.591 198.087 311.893C196.654 310.185 194.951 308.846 192.982 307.872C191.008 306.888 188.925 306.393 186.732 306.393C184.535 306.393 182.451 306.888 180.482 307.872C178.524 308.846 176.821 310.185 175.378 311.893C173.946 313.591 172.816 315.575 171.982 317.851C171.149 320.117 170.732 322.539 170.732 325.122C170.732 327.695 171.149 330.117 171.982 332.393C172.816 334.659 173.946 336.643 175.378 338.351C176.821 340.049 178.524 341.388 180.482 342.372C182.451 343.362 184.535 343.851 186.732 343.851ZM197.524 271.768L191.17 291.976H182.191L184.92 271.768H197.524Z" fill="#1F1F1F"/>
<path d="M236.797 269.372V352.247H225.777V269.372H236.797Z" fill="#1F1F1F"/>
<path d="M260.737 352.247H249.737V297.872H260.633L260.737 352.247ZM255.175 286.06C253.217 286.06 251.555 285.367 250.196 283.976C248.831 282.575 248.154 280.888 248.154 278.914C248.154 276.945 248.831 275.279 250.196 273.914C251.555 272.555 253.217 271.872 255.175 271.872C257.144 271.872 258.81 272.555 260.175 273.914C261.534 275.279 262.217 276.945 262.217 278.914C262.217 280.888 261.534 282.575 260.175 283.976C258.81 285.367 257.144 286.06 255.175 286.06Z" fill="#1F1F1F"/>
<path d="M324.659 297.872V352.247H315.346L313.638 345.997C311.747 348.497 309.325 350.393 306.367 351.685C303.419 352.961 300.435 353.601 297.409 353.601C293.627 353.601 290.096 352.862 286.805 351.393C283.513 349.924 280.638 347.904 278.18 345.331C275.721 342.747 273.768 339.721 272.325 336.247C270.877 332.763 270.159 329.055 270.159 325.122C270.159 321.18 270.877 317.471 272.325 313.997C273.768 310.513 275.721 307.487 278.18 304.914C280.638 302.331 283.513 300.305 286.805 298.831C290.096 297.362 293.627 296.622 297.409 296.622C300.435 296.622 303.346 297.216 306.138 298.393C308.94 299.56 311.44 301.393 313.638 303.893L315.346 297.872H324.659ZM297.409 343.851C299.601 343.851 301.685 343.362 303.659 342.372C305.627 341.388 307.331 340.049 308.763 338.351C310.206 336.643 311.346 334.659 312.18 332.393C313.013 330.117 313.43 327.695 313.43 325.122C313.43 322.539 313.013 320.117 312.18 317.851C311.346 315.575 310.206 313.591 308.763 311.893C307.331 310.185 305.627 308.846 303.659 307.872C301.685 306.888 299.601 306.393 297.409 306.393C295.211 306.393 293.127 306.888 291.159 307.872C289.2 308.846 287.497 310.185 286.055 311.893C284.622 313.591 283.492 315.575 282.659 317.851C281.825 320.117 281.409 322.539 281.409 325.122C281.409 327.695 281.825 330.117 282.659 332.393C283.492 334.659 284.622 336.643 286.055 338.351C287.497 340.049 289.2 341.388 291.159 342.372C293.127 343.362 295.211 343.851 297.409 343.851Z" fill="#1F1F1F"/>
<path d="M390.497 353.601C386.705 353.601 383.163 352.862 379.872 351.393C376.58 349.924 373.705 347.904 371.247 345.331C368.788 342.747 366.835 339.721 365.392 336.247C363.96 332.763 363.247 329.055 363.247 325.122C363.247 321.18 363.96 317.471 365.392 313.997C366.835 310.513 368.788 307.487 371.247 304.914C373.705 302.331 376.58 300.305 379.872 298.831C383.163 297.362 386.705 296.622 390.497 296.622C394.882 296.622 398.934 297.612 402.642 299.581C406.351 301.539 409.455 304.226 411.955 307.643L404.226 313.643C402.71 311.45 400.799 309.726 398.497 308.476C396.189 307.226 393.71 306.601 391.059 306.601C388.793 306.601 386.632 307.081 384.58 308.039C382.538 308.987 380.757 310.289 379.247 311.956C377.731 313.612 376.538 315.575 375.663 317.851C374.799 320.117 374.372 322.539 374.372 325.122C374.372 327.695 374.799 330.117 375.663 332.393C376.538 334.659 377.731 336.643 379.247 338.351C380.757 340.049 382.538 341.388 384.58 342.372C386.632 343.362 388.793 343.851 391.059 343.851C394.017 343.851 396.705 343.06 399.122 341.476C401.538 339.883 403.502 337.758 405.017 335.101L412.517 341.685C410.101 345.325 406.96 348.221 403.101 350.372C399.236 352.523 395.038 353.601 390.497 353.601Z" fill="#1F1F1F"/>
<path d="M421.704 346.351C421.704 344.383 422.381 342.695 423.745 341.289C425.105 339.888 426.771 339.185 428.745 339.185C430.714 339.185 432.381 339.888 433.745 341.289C435.105 342.695 435.787 344.383 435.787 346.351C435.787 348.31 435.105 349.971 433.745 351.331C432.381 352.69 430.714 353.372 428.745 353.372C426.771 353.372 425.105 352.69 423.745 351.331C422.381 349.971 421.704 348.31 421.704 346.351Z" fill="#1F1F1F"/>
<path d="M103.11 415.431V404.265H101.068V402.577H103.11V401.265C103.11 399.879 103.474 398.806 104.214 398.056C104.948 397.306 105.99 396.931 107.339 396.931C107.839 396.931 108.339 397.004 108.839 397.14L108.735 398.91C108.36 398.843 107.953 398.806 107.526 398.806C106.818 398.806 106.266 399.015 105.88 399.431C105.49 399.848 105.297 400.447 105.297 401.223V402.577H108.047V404.265H105.297V415.431H103.11Z" fill="#1F1F1F"/>
<path d="M120.233 414.16C119.368 415.16 118.113 415.66 116.462 415.66C115.087 415.66 114.035 415.265 113.316 414.473C112.608 413.681 112.253 412.504 112.253 410.931V402.577H114.441V410.89C114.441 412.838 115.233 413.806 116.816 413.806C118.493 413.806 119.613 413.181 120.17 411.931V402.577H122.358V415.431H120.274L120.233 414.16Z" fill="#1F1F1F"/>
<path d="M129.904 415.431H127.716V397.181H129.904V415.431Z" fill="#1F1F1F"/>
<path d="M137.631 415.431H135.444V397.181H137.631V415.431Z" fill="#1F1F1F"/>
<path d="M150.463 412.015C150.463 411.431 150.239 410.973 149.796 410.64C149.348 410.306 148.567 410.025 147.442 409.785C146.327 409.551 145.447 409.265 144.796 408.931C144.14 408.598 143.655 408.202 143.338 407.744C143.03 407.285 142.879 406.739 142.879 406.098C142.879 405.046 143.322 404.155 144.213 403.431C145.114 402.712 146.254 402.348 147.629 402.348C149.088 402.348 150.265 402.723 151.171 403.473C152.088 404.223 152.546 405.181 152.546 406.348H150.338C150.338 405.754 150.077 405.239 149.567 404.806C149.051 404.364 148.405 404.14 147.629 404.14C146.838 404.14 146.213 404.317 145.754 404.66C145.306 405.009 145.088 405.468 145.088 406.035C145.088 406.567 145.296 406.968 145.713 407.244C146.129 407.509 146.885 407.765 147.984 408.015C149.077 408.254 149.968 408.546 150.65 408.89C151.327 409.223 151.838 409.634 152.171 410.119C152.504 410.593 152.671 411.176 152.671 411.869C152.671 413.025 152.202 413.947 151.275 414.64C150.359 415.322 149.171 415.66 147.713 415.66C146.681 415.66 145.775 415.478 144.984 415.119C144.192 414.759 143.567 414.254 143.109 413.598C142.661 412.947 142.442 412.239 142.442 411.473H144.65C144.692 412.212 144.984 412.796 145.525 413.223C146.077 413.655 146.806 413.869 147.713 413.869C148.546 413.869 149.213 413.702 149.713 413.369C150.213 413.035 150.463 412.587 150.463 412.015Z" fill="#1F1F1F"/>
<path d="M160.329 399.452V402.577H162.725V404.265H160.329V412.244C160.329 412.759 160.433 413.15 160.642 413.41C160.861 413.66 161.23 413.785 161.746 413.785C161.996 413.785 162.34 413.739 162.788 413.64V415.431C162.204 415.582 161.642 415.66 161.1 415.66C160.111 415.66 159.371 415.369 158.871 414.785C158.371 414.192 158.121 413.343 158.121 412.244V404.265H155.788V402.577H158.121V399.452H160.329Z" fill="#1F1F1F"/>
<path d="M175.058 415.431C174.933 415.181 174.828 414.733 174.745 414.077C173.714 415.134 172.495 415.66 171.078 415.66C169.813 415.66 168.771 415.306 167.953 414.598C167.146 413.879 166.745 412.968 166.745 411.869C166.745 410.535 167.25 409.504 168.266 408.765C169.292 408.015 170.729 407.64 172.578 407.64H174.703V406.619C174.703 405.858 174.474 405.244 174.016 404.785C173.558 404.327 172.881 404.098 171.995 404.098C171.203 404.098 170.542 404.301 170.016 404.702C169.485 405.108 169.224 405.587 169.224 406.14H167.016C167.016 405.504 167.235 404.884 167.683 404.285C168.141 403.692 168.756 403.218 169.537 402.869C170.328 402.525 171.188 402.348 172.12 402.348C173.604 402.348 174.766 402.718 175.599 403.452C176.443 404.192 176.881 405.212 176.912 406.515V412.431C176.912 413.614 177.058 414.551 177.349 415.244V415.431H175.058ZM171.412 413.765C172.089 413.765 172.735 413.587 173.349 413.223C173.974 412.864 174.422 412.4 174.703 411.827V409.202H172.995C170.297 409.202 168.953 409.989 168.953 411.556C168.953 412.254 169.183 412.796 169.641 413.181C170.099 413.572 170.688 413.765 171.412 413.765Z" fill="#1F1F1F"/>
<path d="M187.321 413.869C188.113 413.869 188.801 413.634 189.384 413.16C189.967 412.692 190.29 412.098 190.363 411.39H192.446C192.405 412.129 192.144 412.827 191.676 413.494C191.202 414.15 190.577 414.676 189.801 415.077C189.019 415.462 188.196 415.66 187.321 415.66C185.571 415.66 184.176 415.077 183.134 413.91C182.103 412.744 181.592 411.15 181.592 409.119V408.744C181.592 407.494 181.821 406.384 182.28 405.41C182.749 404.442 183.41 403.692 184.259 403.16C185.118 402.619 186.139 402.348 187.321 402.348C188.764 402.348 189.957 402.78 190.905 403.64C191.863 404.504 192.374 405.619 192.446 406.994H190.363C190.29 406.16 189.972 405.483 189.405 404.952C188.847 404.41 188.155 404.14 187.321 404.14C186.196 404.14 185.327 404.546 184.717 405.348C184.103 406.155 183.801 407.317 183.801 408.827V409.244C183.801 410.733 184.103 411.879 184.717 412.681C185.327 413.473 186.196 413.869 187.321 413.869Z" fill="#1F1F1F"/>
<path d="M200.316 409.473L198.941 410.91V415.431H196.732V397.181H198.941V408.223L200.107 406.806L204.128 402.577H206.795L201.795 407.952L207.378 415.431H204.795L200.316 409.473Z" fill="#1F1F1F"/>
<path d="M218.189 408.89C218.189 406.921 218.653 405.338 219.585 404.14C220.528 402.947 221.757 402.348 223.273 402.348C224.773 402.348 225.96 402.864 226.835 403.89V397.181H229.044V415.431H227.023L226.919 414.056C226.028 415.129 224.804 415.66 223.252 415.66C221.752 415.66 220.528 415.056 219.585 413.848C218.653 412.629 218.189 411.03 218.189 409.056V408.89ZM220.398 409.14C220.398 410.598 220.695 411.744 221.294 412.577C221.887 413.4 222.721 413.806 223.794 413.806C225.179 413.806 226.195 413.181 226.835 411.931V406.015C226.179 404.806 225.174 404.202 223.814 404.202C222.731 404.202 221.887 404.619 221.294 405.452C220.695 406.285 220.398 407.515 220.398 409.14Z" fill="#1F1F1F"/>
<path d="M239.607 415.66C237.857 415.66 236.43 415.093 235.336 413.952C234.253 412.817 233.711 411.285 233.711 409.369V408.952C233.711 407.676 233.951 406.535 234.44 405.535C234.925 404.535 235.607 403.759 236.482 403.202C237.357 402.634 238.305 402.348 239.336 402.348C241.003 402.348 242.3 402.9 243.232 403.994C244.159 405.093 244.628 406.671 244.628 408.723V409.64H235.92C235.946 410.905 236.315 411.926 237.024 412.702C237.732 413.483 238.633 413.869 239.732 413.869C240.508 413.869 241.159 413.718 241.69 413.41C242.232 413.093 242.701 412.671 243.107 412.14L244.461 413.181C243.378 414.837 241.758 415.66 239.607 415.66ZM239.336 404.14C238.446 404.14 237.696 404.468 237.086 405.119C236.487 405.759 236.117 406.66 235.982 407.827H242.42V407.66C242.362 406.551 242.065 405.692 241.524 405.077C240.982 404.452 240.253 404.14 239.336 404.14Z" fill="#1F1F1F"/>
<path d="M253.214 412.452L256.401 402.577H258.651L254.047 415.431H252.36L247.714 402.577H249.964L253.214 412.452Z" fill="#1F1F1F"/>
<path d="M267.925 415.66C266.175 415.66 264.748 415.093 263.654 413.952C262.57 412.817 262.029 411.285 262.029 409.369V408.952C262.029 407.676 262.268 406.535 262.758 405.535C263.242 404.535 263.925 403.759 264.8 403.202C265.675 402.634 266.623 402.348 267.654 402.348C269.32 402.348 270.617 402.9 271.55 403.994C272.477 405.093 272.945 406.671 272.945 408.723V409.64H264.237C264.263 410.905 264.633 411.926 265.341 412.702C266.05 413.483 266.951 413.869 268.05 413.869C268.826 413.869 269.477 413.718 270.008 413.41C270.55 413.093 271.018 412.671 271.425 412.14L272.779 413.181C271.695 414.837 270.076 415.66 267.925 415.66ZM267.654 404.14C266.763 404.14 266.013 404.468 265.404 405.119C264.805 405.759 264.435 406.66 264.3 407.827H270.737V407.66C270.68 406.551 270.383 405.692 269.841 405.077C269.3 404.452 268.57 404.14 267.654 404.14Z" fill="#1F1F1F"/>
<path d="M279.677 415.431H277.49V397.181H279.677V415.431Z" fill="#1F1F1F"/>
<path d="M284.446 408.89C284.446 407.629 284.686 406.494 285.175 405.494C285.675 404.483 286.363 403.702 287.238 403.16C288.123 402.619 289.139 402.348 290.28 402.348C292.03 402.348 293.446 402.952 294.53 404.16C295.613 405.369 296.155 406.983 296.155 408.994V409.14C296.155 410.39 295.91 411.515 295.425 412.515C294.951 413.515 294.264 414.296 293.363 414.848C292.472 415.39 291.451 415.66 290.3 415.66C288.561 415.66 287.155 415.056 286.071 413.848C284.988 412.64 284.446 411.035 284.446 409.035V408.89ZM286.655 409.14C286.655 410.572 286.978 411.718 287.634 412.577C288.3 413.442 289.186 413.869 290.3 413.869C291.41 413.869 292.29 413.431 292.946 412.556C293.613 411.681 293.946 410.462 293.946 408.89C293.946 407.473 293.613 406.327 292.946 405.452C292.28 404.577 291.389 404.14 290.28 404.14C289.196 404.14 288.321 404.577 287.655 405.452C286.988 406.317 286.655 407.546 286.655 409.14Z" fill="#1F1F1F"/>
<path d="M311.58 409.14C311.58 411.098 311.127 412.676 310.226 413.869C309.336 415.067 308.127 415.66 306.601 415.66C305.044 415.66 303.815 415.171 302.914 414.181V420.369H300.726V402.577H302.726L302.83 403.994C303.732 402.9 304.976 402.348 306.56 402.348C308.112 402.348 309.336 402.931 310.226 404.098C311.127 405.254 311.58 406.869 311.58 408.952V409.14ZM309.393 408.89C309.393 407.447 309.08 406.306 308.455 405.473C307.841 404.629 306.997 404.202 305.914 404.202C304.58 404.202 303.58 404.796 302.914 405.973V412.119C303.58 413.285 304.586 413.869 305.935 413.869C306.987 413.869 307.83 413.452 308.455 412.619C309.08 411.785 309.393 410.546 309.393 408.89Z" fill="#1F1F1F"/>
<path d="M321.531 415.66C319.781 415.66 318.354 415.093 317.26 413.952C316.177 412.817 315.635 411.285 315.635 409.369V408.952C315.635 407.676 315.875 406.535 316.364 405.535C316.849 404.535 317.531 403.759 318.406 403.202C319.281 402.634 320.229 402.348 321.26 402.348C322.927 402.348 324.224 402.9 325.156 403.994C326.083 405.093 326.552 406.671 326.552 408.723V409.64H317.843C317.869 410.905 318.239 411.926 318.948 412.702C319.656 413.483 320.557 413.869 321.656 413.869C322.432 413.869 323.083 413.718 323.614 413.41C324.156 413.093 324.625 412.671 325.031 412.14L326.385 413.181C325.302 414.837 323.682 415.66 321.531 415.66ZM321.26 404.14C320.369 404.14 319.619 404.468 319.01 405.119C318.411 405.759 318.041 406.66 317.906 407.827H324.343V407.66C324.286 406.551 323.989 405.692 323.448 405.077C322.906 404.452 322.177 404.14 321.26 404.14Z" fill="#1F1F1F"/>
<path d="M337.117 404.556C336.784 404.504 336.419 404.473 336.034 404.473C334.586 404.473 333.607 405.087 333.096 406.306V415.431H330.909V402.577H333.055L333.075 404.056C333.794 402.921 334.815 402.348 336.138 402.348C336.565 402.348 336.893 402.4 337.117 402.494V404.556Z" fill="#1F1F1F"/>
<mask id="mask0_1_1388" style="mask-type:luminance" maskUnits="userSpaceOnUse" x="112" y="1" width="211" height="208">
<path d="M112 1.34552H323V208.326H112V1.34552Z" fill="white"/>
</mask>
<g mask="url(#mask0_1_1388)">
<path d="M322.954 208.297H270.325V106.507C270.325 77.4661 246.637 53.8323 217.508 53.8323C188.38 53.8323 164.692 77.4578 164.692 106.507V208.297H112.071V106.507C112.071 48.5172 159.376 1.34552 217.508 1.34552C275.636 1.34552 322.946 48.5172 322.946 106.507V208.297H322.954Z" fill="#8870FF"/>
</g>
<g opacity="0.5">
<mask id="mask1_1_1388" style="mask-type:luminance" maskUnits="userSpaceOnUse" x="114" y="0" width="207" height="211">
<path d="M114 211L114 0H320.98V211H114Z" fill="white"/>
</mask>
<g mask="url(#mask1_1_1388)">
<path d="M320.951 0.045929V52.6748H219.162C190.121 52.6748 166.487 76.363 166.487 105.492C166.487 134.62 190.112 158.308 219.162 158.308H320.951V210.929H219.162C161.172 210.929 114 163.624 114 105.492C114 47.3638 161.172 0.0542908 219.162 0.0542908H320.951V0.045929Z" fill="#8870FF"/>
</g>
</g>
</svg>
