<svg width="813" height="1638" viewBox="0 0 813 1638" fill="none" xmlns="http://www.w3.org/2000/svg">
<mask id="mask0_17_13" style="mask-type:luminance" maskUnits="userSpaceOnUse" x="0" y="0" width="813" height="1638">
<path d="M0 1637.64L0 0.000276715H812.828L812.828 1637.64H0Z" fill="white"/>
</mask>
<g mask="url(#mask0_17_13)">
<path d="M52.6042 115.422C52.6042 99.8595 65.224 87.2293 80.7917 87.2293H732.208C747.776 87.2293 760.396 99.8595 760.396 115.422L760.396 1537.1C760.396 1552.67 747.776 1565.28 732.208 1565.28H80.7917C65.224 1565.28 52.6042 1552.67 52.6042 1537.1L52.6042 115.422ZM66.8646 1637.72H746.135C782.641 1637.72 812.229 1608.14 812.229 1571.65L812.229 66.1668C812.229 29.6824 782.641 0.093864 746.135 0.093864H66.8646C30.3594 0.093864 0.770874 29.6824 0.770874 66.1668L0.770874 1571.65C0.770874 1608.14 30.3594 1637.72 66.8646 1637.72Z" fill="#0F0F0F"/>
</g>
</svg>
