<svg
  xmlns="http://www.w3.org/2000/svg"
  width="560"
  height="560"
  viewBox="-10 -10 550 550"
>
  <path
    id="path1"
    d="M250 350 A250 100 0 1 0 250 150 A250 100 0 1 0 250 350"
    fill="transparent"
    stroke="#000"
    strokeWidth="5"
  ></path>

  <circle r="12" fill="#000">
    <animateMotion repeatCount="indefinite" dur="10s">
      <mpath href="#path1"></mpath>
    </animateMotion>
  </circle>

  <!-- Caminho da elipse 2 (rotação de 90 graus) -->
  <path
    id="path2"
    d="M250 0 A100 250 0 1 0 250 500 A100 250 0 1 0 250 0"
    fill="transparent"
    stroke="#000"
    strokeWidth="5"
  ></path>

  <circle r="12" fill="#000">
    <animateMotion repeatCount="indefinite" dur="10s">
      <mpath href="#path2"></mpath>
    </animateMotion>
  </circle>

  <path
    id="path3"
    xmlns="http://www.w3.org/2000/svg"
    fill="transparent"
    d="M79.491 79.4912C89.0278 69.95441 102.9125 65.34691 120.2192 65.49059C137.5382 65.63436 158.0784 70.54467 180.547 79.8113C225.472 98.3399 277.631 134.088 326.271 182.729C374.912 231.37 410.66 283.528 429.189 328.453C438.455 350.922 443.366 371.462 443.509 388.781C443.653 406.088 439.046 419.972 429.509 429.509C419.972 439.046 406.087 443.653 388.781 443.51C371.462 443.366 350.921 438.456 328.453 429.189C283.528 410.66 231.369 374.912 182.729 326.271C134.088 277.631 98.3401 225.473 79.8113 180.547C70.5447 158.0786 65.6344 137.5383 65.4906 120.2194C65.3468 102.9127 69.9543 89.028 79.491 79.4912Z"
    stroke="black"
    strokeWidth="5"
  ></path>

  <circle r="12" fill="#000">
    <animateMotion repeatCount="indefinite" dur="10s" begin="0s; delay1.begin+2s">
      <mpath href="#path3"></mpath>
    </animateMotion>
  </circle>

  <path
    id="path4"
    xmlns="http://www.w3.org/2000/svg"
    fill="transparent"
    d="M420.509 79.4912C410.972 69.95441 397.087 65.34691 379.78 65.49059C362.461 65.63436 341.921 70.54467 319.453 79.8113C274.528 98.3399 222.369 134.088 173.729 182.729C125.088 231.37 89.3401 283.528 70.8113 328.453C61.5455 350.922 56.6344 371.462 56.4906 388.781C56.3468 406.088 60.9543 419.972 70.491 429.509C80.0278 439.046 93.9125 443.653 111.22 443.51C128.541 443.366 149.081 438.456 171.549 429.189C216.474 410.66 268.631 374.912 317.271 326.271C365.912 277.631 401.66 225.473 420.189 180.547C429.456 158.0786 434.366 137.5383 434.51 120.2194C434.654 102.9127 430.046 89.028 420.509 79.4912Z"
    stroke="black"
    strokeWidth="5"
  ></path>

  <circle r="12" fill="#000">
    <animateMotion repeatCount="indefinite" dur="10s">
      <mpath href="#path4"></mpath>
    </animateMotion>
  </circle>
</svg>
